<svg width="263" height="270" viewBox="0 0 263 270" fill="none" xmlns="http://www.w3.org/2000/svg">
<rect x="2.5" y="2.5" width="258" height="265" rx="12.5" fill="white" stroke="black" stroke-width="5"/>
<path d="M72.024 238.768C64.6 238.768 57.9867 237.275 52.184 234.288C46.3813 231.216 41.816 227.035 38.488 221.744C35.2453 216.453 33.624 210.395 33.624 203.568V148.4H55.64V202.416C55.64 205.659 56.3653 208.603 57.816 211.248C59.2667 213.808 61.2293 215.856 63.704 217.392C66.1787 218.843 68.952 219.568 72.024 219.568C75.2667 219.568 78.1253 218.843 80.6 217.392C83.16 215.856 85.208 213.808 86.744 211.248C88.28 208.603 89.048 205.659 89.048 202.416V148.4H110.296V203.568C110.296 210.395 108.632 216.453 105.304 221.744C102.061 227.035 97.5387 231.216 91.736 234.288C85.9333 237.275 79.3627 238.768 72.024 238.768ZM195.017 238L167.241 197.808L131.657 148.4H158.153L185.289 188.08L221.513 238H195.017ZM131.017 238L165.193 189.232L182.729 199.344L156.233 238H131.017ZM187.337 196.4L169.929 186.672L195.017 148.4H220.233L187.337 196.4Z" fill="#1A4680"/>
<rect x="88" y="135" width="25" height="33" fill="white"/>
<circle cx="100.5" cy="148.5" r="10.5" fill="#FF8011"/>
<path d="M34.264 128V38.4H74.584C80.3013 38.4 85.464 39.6373 90.072 42.112C94.7653 44.5867 98.4347 48 101.08 52.352C103.725 56.6187 105.048 61.4827 105.048 66.944C105.048 72.576 103.725 77.6533 101.08 82.176C98.4347 86.6133 94.808 90.112 90.2 92.672C85.592 95.232 80.3867 96.512 74.584 96.512H55V128H34.264ZM83.928 128L61.144 87.552L83.416 84.352L108.76 128H83.928ZM55 79.872H72.664C74.8827 79.872 76.8027 79.4027 78.424 78.464C80.1307 77.44 81.4107 76.032 82.264 74.24C83.2027 72.448 83.672 70.4 83.672 68.096C83.672 65.792 83.16 63.7867 82.136 62.08C81.112 60.288 79.6187 58.9227 77.656 57.984C75.7787 57.0453 73.4747 56.576 70.744 56.576H55V79.872ZM140.142 128L113.262 38.4H135.406L148.846 85.504C149.443 87.6373 149.955 89.8133 150.382 92.032C150.894 94.1653 151.278 96.2133 151.534 98.176C151.875 100.139 152.131 101.973 152.302 103.68C152.473 105.301 152.643 106.667 152.814 107.776H149.998C150.51 104.619 150.937 101.803 151.278 99.328C151.705 96.8533 152.174 94.5493 152.686 92.416C153.198 90.1973 153.838 87.8933 154.606 85.504L167.918 50.048H185.326L198.382 85.504C199.406 88.32 200.259 90.9653 200.942 93.44C201.625 95.9147 202.137 98.304 202.478 100.608C202.905 102.827 203.246 105.045 203.502 107.264L200.942 107.648C201.113 106.112 201.241 104.704 201.326 103.424C201.411 102.059 201.497 100.779 201.582 99.584C201.753 98.304 201.923 96.9813 202.094 95.616C202.265 94.2507 202.521 92.7573 202.862 91.136C203.203 89.4293 203.673 87.5093 204.27 85.376L217.582 38.4H239.214L212.334 128H195.694L174.446 76.416L176.878 76.672L157.294 128H140.142Z" fill="#1A4680"/>
</svg>
